<svg xmlns="http://www.w3.org/2000/svg" viewBox="0 0 564.86 555.88"><defs><style>.cls-1{fill:none;stroke:#000;stroke-miterlimit:10;}</style></defs><g id="Layer_2" data-name="Layer 2"><g id="Layer_1-2" data-name="Layer 1"><path class="cls-1" d="M66.09,467.93C-34.6,346.1-17.45,165.72,104.38,65,224.27-34,401.78-17.16,500.85,102.73c97.5,118,80.9,292.65-37.08,390.15-116.1,95.94-288,79.6-383.93-36.5C-14.58,342.14,1.5,173,115.75,78.57,228.18-14.34,394.63,1.49,487.54,113.91,579,224.55,563.39,388.35,452.76,479.77c-108.87,90-270.06,74.65-360-34.22C4.2,338.42,19.27,179.8,126.41,91.26,231.84,4.14,387.93,19,475.05,124.4c85.74,103.75,71.13,257.35-32.61,343.09-102.09,84.36-253.25,70-337.62-32.1-83-100.46-68.88-249.21,31.58-332.23,98.87-81.7,245.24-67.79,326.94,31.08,80.4,97.28,66.71,241.33-30.58,321.72-95.74,79.12-237.48,65.65-316.6-30.09-77.85-94.21-64.59-233.7,29.62-311.55,92.71-76.62,230-63.57,306.58,29.14,75.39,91.23,62.55,226.31-28.68,301.7C333.91,519.35,201,506.71,126.8,416.94c-73-88.35-60.58-219.15,27.77-292.16,86.93-71.84,215.65-59.61,287.49,27.33,70.7,85.55,58.66,212.22-26.89,282.92C331,504.6,206.34,492.75,136.77,408.56c-68.47-82.84-56.81-205.5,26-274C244.33,67.22,365,78.7,432.41,160.22c66.3,80.23,55,199-25.22,265.3-78.95,65.24-195.83,54.13-261.07-24.81A182.48,182.48,0,0,1,170.54,143.8a179.56,179.56,0,0,1,252.81,24A176.7,176.7,0,0,1,399.7,416.61a173.88,173.88,0,0,1-244.81-23.27,171.12,171.12,0,0,1,22.9-240.92A168.39,168.39,0,0,1,414.86,175a165.72,165.72,0,0,1-22.17,233.3,163.06,163.06,0,0,1-229.58-21.83,160.46,160.46,0,0,1,21.47-225.91A157.91,157.91,0,0,1,406.9,181.65a155.39,155.39,0,0,1-20.8,218.77A152.91,152.91,0,0,1,170.82,380,150.48,150.48,0,0,1,191,168.1a148.08,148.08,0,0,1,208.47,19.82,145.71,145.71,0,0,1-19.5,205.15,143.39,143.39,0,0,1-201.88-19.19,141.1,141.1,0,0,1,18.88-198.66,138.87,138.87,0,0,1,195.5,18.58,136.64,136.64,0,0,1-18.29,192.38,134.47,134.47,0,0,1-189.31-18,132.33,132.33,0,0,1,17.71-186.3,130.22,130.22,0,0,1,183.33,17.43,128.14,128.14,0,0,1-17.15,180.4,126.09,126.09,0,0,1-177.53-16.87,124.09,124.09,0,0,1,16.6-174.7,122.11,122.11,0,0,1,171.92,16.34,120.17,120.17,0,0,1-16.08,169.17,118.25,118.25,0,0,1-166.48-15.82A116.36,116.36,0,0,1,212.72,194a114.5,114.5,0,0,1,161.21,15.32A112.67,112.67,0,0,1,358.85,368a110.88,110.88,0,0,1-156.11-14.84,109.12,109.12,0,0,1,14.6-153.62,107.38,107.38,0,0,1,151.18,14.37,105.67,105.67,0,0,1-14.14,148.76A104,104,0,0,1,208,348.74a102.33,102.33,0,0,1,13.69-144.06,100.69,100.69,0,0,1,141.76,13.47,99.09,99.09,0,0,1-13.26,139.51A97.52,97.52,0,0,1,212.9,344.61a96,96,0,0,1,12.84-135.09,94.43,94.43,0,0,1,132.94,12.63A92.93,92.93,0,0,1,346.25,353a91.44,91.44,0,0,1-128.74-12.24,90,90,0,0,1,12-126.68A88.56,88.56,0,0,1,354.22,225.9a87.14,87.14,0,0,1-11.67,122.68A85.74,85.74,0,0,1,221.84,337.1a84.37,84.37,0,0,1,11.29-118.79A83,83,0,0,1,350,229.42a81.71,81.71,0,0,1-10.94,115,80.4,80.4,0,0,1-113.2-10.76"/></g></g></svg>