<svg xmlns="http://www.w3.org/2000/svg" viewBox="0 0 91.05 95.31"><defs><style>.cls-1,.cls-2{fill:#f4e3c6;}.cls-1,.cls-2,.cls-3,.cls-4{stroke:#000;}.cls-1,.cls-3{stroke-linejoin:round;}.cls-2,.cls-4{stroke-miterlimit:10;}.cls-3{fill:none;}.cls-4{fill:#fff;}.cls-5{font-size:14.11px;font-family:Jalnan;}</style></defs><g id="Layer_2" data-name="Layer 2"><g id="레이어_1" data-name="레이어 1"><path class="cls-1" d="M44,1,1.6,34.23A2.44,2.44,0,0,0,3.1,38.6H87.94a2.44,2.44,0,0,0,1.51-4.37L47,1A2.45,2.45,0,0,0,44,1Z"/><rect class="cls-2" x="0.5" y="34.05" width="90.05" height="60.75" rx="2.95"/><path class="cls-3" d="M90.55,38.47,47.07,71.68a2.57,2.57,0,0,1-3.09,0L.5,38.47"/><path class="cls-4" d="M13.38,47.43a1.79,1.79,0,0,0,.7,1.41L44.69,72.2s.34.66,1.71-.16S72.55,52.22,77.05,48.78a1.79,1.79,0,0,0,.7-1.41V20.1A1.78,1.78,0,0,0,76,18.32H15.16a1.78,1.78,0,0,0-1.78,1.78Z"/><text class="cls-5" transform="translate(24.78 41.35)">Hello!</text><path d="M22.42,48c2-2.41,5.45-.43,7.82.17a6.8,6.8,0,0,0,4-.09,12.78,12.78,0,0,1,4.7-.77c1.67.08,3.27.6,4.92.82a9.8,9.8,0,0,0,4.55-.54,17.39,17.39,0,0,1,4.72-1,14.68,14.68,0,0,1,4.76.54,17.5,17.5,0,0,0,2.52.79,4,4,0,0,0,2.24-.5,12.36,12.36,0,0,1,5.28-.89.5.5,0,0,0,0-1,14.89,14.89,0,0,0-4.7.56,18.19,18.19,0,0,1-2,.81,5.27,5.27,0,0,1-2.64-.6,15.54,15.54,0,0,0-9.35,0,12,12,0,0,1-5,.92c-1.66-.18-3.27-.72-4.94-.85a11.9,11.9,0,0,0-4.7.59,7.88,7.88,0,0,1-2.23.53,6.82,6.82,0,0,1-2.1-.32c-2.67-.74-6.28-2.53-8.51.16-.4.49.3,1.2.71.71Z"/><path d="M23.21,54.27a18.38,18.38,0,0,0,4.54.72,29.16,29.16,0,0,0,4.15-.77,11,11,0,0,1,4.37.55,10.33,10.33,0,0,0,3.91.31,31,31,0,0,1,4-.73,4,4,0,0,1,1.91.45,4.46,4.46,0,0,0,1.8.6,5.26,5.26,0,0,0,1.91-.47,8.82,8.82,0,0,1,2.2-.58,8.28,8.28,0,0,1,2.11,0c.73.1,1.43.34,2.16.41a6.46,6.46,0,0,0,2.23-.29A7.64,7.64,0,0,1,61,54.28c1.49.11,3,.41,4.44-.17.58-.25.33-1.21-.27-1a8.28,8.28,0,0,1-4,.16,8.53,8.53,0,0,0-1.89,0c-.74.1-1.45.38-2.2.46A6.44,6.44,0,0,1,55,53.49a9.2,9.2,0,0,0-2-.2,11.8,11.8,0,0,0-3.92.87,2.48,2.48,0,0,1-2,0,7.86,7.86,0,0,0-1.85-.71,9.7,9.7,0,0,0-3.78.41,9.36,9.36,0,0,1-4.21.13,30.32,30.32,0,0,0-3.88-.79c-1.59-.11-3,.52-4.54.75a13.78,13.78,0,0,1-5.29-.6c-.62-.15-.89.81-.26,1Z"/><path d="M31.51,62c1.46-1.16,3.61.1,5.18.29,1.88.22,3.63-.84,5.5-.64.92.09,1.71.66,2.62.8a9,9,0,0,0,2.69-.14,12.9,12.9,0,0,1,3-.14,6.2,6.2,0,0,0,2.8-.4,6.25,6.25,0,0,1,3.34-.35c1.1.16,2.18.42,3.29.52.64.06.63-.94,0-1C58,60.74,56,60,54,60.45a13.92,13.92,0,0,0-1.37.48,4.27,4.27,0,0,1-1.66.24,16.48,16.48,0,0,0-3,0,9.91,9.91,0,0,1-3.16.23,27.33,27.33,0,0,0-2.67-.8c-2-.18-3.82,1-5.8.58s-3.86-1.31-5.59.06c-.5.4.21,1.1.71.71Z"/></g></g></svg>