<svg xmlns="http://www.w3.org/2000/svg" viewBox="0 0 91.19 100.59"><defs><style>.cls-1,.cls-2{fill:#fff;stroke:#000;stroke-linecap:round;stroke-linejoin:round;}.cls-1{stroke-width:3px;}.cls-2{stroke-width:2px;}</style></defs><g id="Layer_2" data-name="Layer 2"><g id="레이어_1" data-name="레이어 1"><path class="cls-1" d="M60.86,88.3a8.35,8.35,0,0,0,.54-2.09c.28-2.46-1.79-6.37,2.11-6.37,4.3,0,8.46,2.86,12.78,3.32C83.63,84,90.51,77.53,89.61,70c-1-8-9.66-13.33-17.24-12.91-2.28.12-4.17.12-4.21-2.49-.1-5.79,6-12,9.25-16.38,3.59-5,8-9.74,10.21-15.56,3.19-8.49-3.89-17.43-12.9-17C66.86,6,63.48,14.87,60.58,20.87c-.39.78-3.21,5.62-2.58,6.6,0,0-4.83-7.58-12.41-8.27s-13.77,6.89-13.78,6.89C33.3,24.28,29,15.85,28,14.34,25,9.38,20.24,4,14.58,2A9.92,9.92,0,0,0,2.12,8.42C-.2,15,4.52,22,7.7,27.47c3.87,6.63,8.68,16.18,5.51,24.12C10.74,57.77,8.15,66.75,11.51,73c1.33,2.48,3.21,4.15,3.3,7,.06,2.11-1.23,4-1.19,6.09,0,2.28,2.05,4.13,3.64,5.55a30.22,30.22,0,0,0,21.41,7.49c6-.24,12.92-1.59,17.87-5.39A13.39,13.39,0,0,0,60.86,88.3Z"/><path class="cls-2" d="M31.79,26.19a139.37,139.37,0,0,0-.67,15.28c.21,6.52,1.43,16.39,9.72,17.66a8.31,8.31,0,0,0,6.73-2.46c7.19-6.72,10.16-19.5,10.52-29"/><path class="cls-2" d="M40.49,59.17c-2.75,2.75-4.54,8.26-3.16,11.71s2.06,3.44,2.06,3.44"/><path class="cls-2" d="M12.89,75.14c4,4.7,11.7,4.43,17.27,4"/><path class="cls-2" d="M44.2,82.78a15.93,15.93,0,0,0,8.55,1.4c3-.33,5.43-1.94,8.31-2.66"/></g></g></svg>