<svg xmlns="http://www.w3.org/2000/svg" viewBox="0 0 81.5 84.99"><defs><style>.cls-1,.cls-2{fill:#fff;stroke:#000;stroke-linecap:round;stroke-linejoin:round;}.cls-1{stroke-width:3px;}.cls-2{stroke-width:2px;}</style></defs><g id="Layer_2" data-name="Layer 2"><g id="레이어_1" data-name="레이어 1"><path class="cls-1" d="M4.66,17.71A33.73,33.73,0,0,0,2.91,23.1C1.89,27.31,0,35.51,3.54,39L5,40.52a45.4,45.4,0,0,0-.58,11c.41,5.6,2.91,10,6.77,14,3.16,3.26,3.18,8.25,6.37,11.78,4.41,4.86,11.34,6.17,17.64,6.2,7,0,14.56-.89,21.09-3.56,3.23-1.32,7.67-3.47,9.07-7,1.51-3.77.75-7.54,3-9.05s9.93-3.84,11.32-13.58a23,23,0,0,0-2.21-14.07c-.76-1.41-2.16-2.61-2.62-4.09a9.24,9.24,0,0,1-.1-2.68c.08-5.95.81-12.25-1.18-18-1.84-5.28-6.75-7-11.65-8.81C56.65.76,51.73,1,47.36,4.88c-1.11,1-2.29,2.23-3.85,1.84a21.69,21.69,0,0,1-3-1.61c-3-1.37-6.63-2.17-9.83-.81-5.28,2.27-7.54,6.79-9,7.55s-4.53-3-9.81-1.51C8.32,11.34,6.1,14.37,4.66,17.71Z"/><path class="cls-2" d="M43.52,7.32c-1.92,3.32-6.41,12.45-6.41,17s.37,10.18,1.13,10.93a6.89,6.89,0,0,0,1.51,1.16l2.68,1.42"/><path class="cls-2" d="M57.48,34.1c.78-.79,1.67-1.76,2.51-2.79a20.78,20.78,0,0,0,3.52-5.51"/><path class="cls-2" d="M60.49,31.44a6.61,6.61,0,0,1,1.16,3.43"/><path class="cls-2" d="M21.64,11.85a46.46,46.46,0,0,0-4.9,20.74c0,9.06,4.28,12.47,7.42,12.65a18.87,18.87,0,0,0,6.13-.8s4.93-2.42,6.44-4.68a13,13,0,0,0,1.9-4.17"/><path class="cls-2" d="M17.87,42c-3,1.51-9,.76-11.32-.75s-2.44-1.69-2.44-1.69"/><path class="cls-2" d="M76.71,35.23c-3.79-1.14-13.58-.75-25.65.76S33.81,41,33,49.57C32.2,57.11,43.22,60,49.55,57.11c8.3-3.77,15.09,2.27,15.09,2.27"/><path class="cls-2" d="M13.34,67.67c5.28,1.51,15.09.76,15.09.76"/><path class="cls-2" d="M39,64.66s4.61,4.9,14.38,4,13.91-4,13.91-4"/></g></g></svg>