<svg xmlns="http://www.w3.org/2000/svg" viewBox="0 0 78.99 78.99"><defs><style>.cls-1{fill:#229342;}.cls-2{fill:#fbc116;}.cls-3{fill:#e33b2e;}.cls-4,.cls-6{fill:#fff;}.cls-5{fill:#1a73e8;}.cls-5,.cls-6,.cls-7{stroke:#000;stroke-miterlimit:10;}.cls-7{fill:none;}</style></defs><g id="Layer_2" data-name="Layer 2"><g id="레이어_1" data-name="레이어 1"><path class="cls-1" d="M.24,39.49c0,21.78,18.3,39.15,41,39.15L5.47,20.21A38.09,38.09,0,0,0,.24,39.49Z"/><polygon class="cls-1" points="26.67 54.83 5.18 19.64 40.94 78.35 57.92 50.22 26.67 54.83"/><path class="cls-2" d="M58.68,73.72A39.33,39.33,0,0,0,73.08,20L39.78,78.35C46.3,78.27,52.64,77.21,58.68,73.72Z"/><polygon class="cls-2" points="59.64 43.62 39.78 78.35 73.08 19.99 40.69 20 59.64 43.62"/><path class="cls-3" d="M59.13,5.9A39.33,39.33,0,0,0,5.4,20.3l67.88-.45A39.12,39.12,0,0,0,59.13,5.9Z"/><polygon class="cls-3" points="34.54 21.66 73.28 19.85 5.4 20.3 21.61 48.34 34.54 21.66"/><circle class="cls-4" cx="39.57" cy="39.3" r="21.79"/><circle class="cls-5" cx="39.57" cy="39.3" r="17.19"/><circle class="cls-6" cx="35.76" cy="34.03" r="5.47"/><circle class="cls-6" cx="45.25" cy="46.12" r="3.74"/><circle class="cls-7" cx="39.5" cy="39.5" r="39"/><line class="cls-7" x1="39.57" y1="18.14" x2="39.57" y2="22.54"/><line class="cls-7" x1="29.47" y1="21.08" x2="31.46" y2="23.87"/><line class="cls-7" x1="50.2" y1="21.08" x2="48.21" y2="23.87"/></g></g></svg>