<svg xmlns="http://www.w3.org/2000/svg" viewBox="0 0 78.99 78.99"><defs><style>.cls-1{fill:#229342;}.cls-2{fill:#fbc116;}.cls-3{fill:#e33b2e;}.cls-4{fill:#fff;}.cls-5{fill:none;stroke:#000;stroke-miterlimit:10;}</style></defs><g id="Layer_2" data-name="Layer 2"><g id="레이어_1" data-name="레이어 1"><path class="cls-1" d="M.24,39.49c0,21.78,18.3,39.15,41,39.15L5.47,20.21A38.09,38.09,0,0,0,.24,39.49Z"/><polygon class="cls-1" points="26.67 54.83 5.18 19.64 40.94 78.35 57.92 50.22 26.67 54.83"/><path class="cls-2" d="M58.68,73.72A39.33,39.33,0,0,0,73.08,20L39.78,78.35C46.3,78.27,52.64,77.21,58.68,73.72Z"/><polygon class="cls-2" points="59.64 43.62 39.78 78.35 73.08 19.99 40.69 20 59.64 43.62"/><path class="cls-3" d="M59.13,5.9A39.33,39.33,0,0,0,5.4,20.3l67.88-.45A39.12,39.12,0,0,0,59.13,5.9Z"/><polygon class="cls-3" points="32.59 20.12 73.28 19.85 5.4 20.3 21.61 48.34 32.59 20.12"/><circle class="cls-4" cx="39.57" cy="39.3" r="21.79"/><circle class="cls-5" cx="39.5" cy="39.5" r="39"/><line class="cls-5" x1="39.39" y1="52.52" x2="39.39" y2="48.12"/><line class="cls-5" x1="49.49" y1="49.58" x2="47.51" y2="46.79"/><line class="cls-5" x1="30.54" y1="49.58" x2="32.52" y2="46.79"/><path class="cls-5" d="M39.83,47.68c-7,0-14.78-2.58-18.11-9.26"/><path class="cls-5" d="M39.83,47.68c7,0,14.79-2.58,18.12-9.26"/></g></g></svg>