<svg xmlns="http://www.w3.org/2000/svg" viewBox="0 0 92.08 67.62"><defs><style>.cls-1,.cls-4{fill:#fff;}.cls-1,.cls-2,.cls-3{stroke:#000;stroke-miterlimit:10;}.cls-3{fill:#e01428;}</style></defs><g id="Layer_2" data-name="Layer 2"><g id="레이어_1" data-name="레이어 1"><polygon class="cls-1" points="9.68 12.7 23.46 46.46 46.69 30.66 39.26 8.35 9.68 12.7"/><ellipse class="cls-2" cx="28.77" cy="23.91" rx="11.02" ry="6.17" transform="translate(-6.81 12.35) rotate(-21.73)"/><path class="cls-3" d="M8.77,32c-2.49-6.35-5-12.69-7.44-19A24.69,24.69,0,0,1,.53,9.7C.43,9.31.59,9.1,1,9,7.75,6.31,14.5,3.62,21.3,1.05a14.05,14.05,0,0,1,3.53-.4A23.39,23.39,0,0,1,48.31,13a25.34,25.34,0,0,1,2.76,18.3A21.39,21.39,0,0,1,39.59,45.93c-5.46,2.87-11.28,4.86-17.05,7l-2.49.91a2.58,2.58,0,0,1-3.15-1.34c-.33-.76-.64-1.53-.94-2.31L8.82,31.94Zm16.67,7.25c2.56-1,5-1.84,7.41-2.94a10.81,10.81,0,0,0,6.36-7.49A13.43,13.43,0,0,0,37.5,18.47c-2.33-4-5.77-6.14-10.48-6a17.45,17.45,0,0,0-9.81,3.49.91.91,0,0,0-.39,1.32Q21,27.79,25.11,38.36Z"/><path class="cls-3" d="M65.14,31.72a9.1,9.1,0,0,0,7.79,8.9A7.23,7.23,0,0,1,77.25,43a10.87,10.87,0,0,1,2.5,3.9c.68,1.94,0,3.24-2,3.72a13.67,13.67,0,0,1-7.15-.32c-5.83-1.71-10.68-4.88-13.88-10.1-3.37-5.49-3.42-11.27-.58-17a18.19,18.19,0,0,1,27.54-6.78,18.55,18.55,0,0,1,6.71,8.18,16.57,16.57,0,0,1-.53,13.64A28.05,28.05,0,0,1,87.68,42a2.06,2.06,0,0,1-2.89.88,11.31,11.31,0,0,1-1.6-.79L66,32.21Zm15.29-.49a5.42,5.42,0,0,0-2.19-6.87c-.37-.25-.75-.48-1.13-.69a6.54,6.54,0,0,0-8,1.06Z"/><path class="cls-3" d="M48.86,55.94q18.8,0,37.61,0a22.91,22.91,0,0,1,2.87.17c.94.12,1.34.63,1.07,1.51a15.54,15.54,0,0,1-3.71,6.9,9.71,9.71,0,0,1-7.06,2.58c-4.2,0-8.4-.07-12.6-.12l-4.91,0c-5.81,0-11.63,0-17.44,0-7.79,0-15.57.06-23.36.09-2.31,0-4.62.06-6.92,0a4.55,4.55,0,0,1-4-2.51c-1-1.71-1.94-3.41-2.89-5.14a7.24,7.24,0,0,1-.63-1.49A1.15,1.15,0,0,1,8,56.17,26.06,26.06,0,0,1,11.63,56Q30.24,55.92,48.86,55.94Z"/><circle class="cls-4" cx="32.74" cy="22.15" r="2.65"/></g></g></svg>