<svg xmlns="http://www.w3.org/2000/svg" viewBox="0 0 85.3 68.45"><defs><style>.cls-1{fill:#e01428;stroke:#000;stroke-miterlimit:10;}</style></defs><g id="Layer_2" data-name="Layer 2"><g id="레이어_1" data-name="레이어 1"><path class="cls-1" d="M1,24.76C1,18,1,11.13,1,4.32A24.46,24.46,0,0,1,1.44,1c.05-.4.28-.53.69-.53,7.27,0,14.54,0,21.81.05a15.16,15.16,0,0,1,3.43.91A23.41,23.41,0,0,1,44.72,21.55a25.37,25.37,0,0,1-4.1,18.05A21.4,21.4,0,0,1,24.6,49c-6.14.68-12.28.41-18.42.29l-2.65-.07a2.58,2.58,0,0,1-2.45-2.4c0-.83,0-1.65,0-2.48V24.76ZM13.88,37.59c2.74,0,5.36.13,8,0A10.78,10.78,0,0,0,30.5,32.9a13.45,13.45,0,0,0,2.17-10.22,11.23,11.23,0,0,0-7.56-9.44A17.44,17.44,0,0,0,14.7,12.9.92.92,0,0,0,13.86,14c0,7.57,0,15.13,0,22.7Z"/><path class="cls-1" d="M60,36.27a9.09,9.09,0,0,0,11.2,3.82A7.23,7.23,0,0,1,76.18,40a10.86,10.86,0,0,1,4.12,2.12c1.55,1.35,1.6,2.82.09,4.24A13.71,13.71,0,0,1,74,49.67c-5.9,1.44-11.69,1.11-17.07-1.82-5.66-3.07-8.59-8.05-9-14.43a17.9,17.9,0,0,1,5.3-14.49A18.1,18.1,0,0,1,68.45,13.8a18.58,18.58,0,0,1,9.91,3.73,16.6,16.6,0,0,1,6.35,12.08,28.58,28.58,0,0,1,0,4.34,2.06,2.06,0,0,1-2.06,2.2,10.58,10.58,0,0,1-1.78.12H60Zm13-8.06a5.42,5.42,0,0,0-5.33-4.86c-.44,0-.89,0-1.33,0A6.54,6.54,0,0,0,60,28.21Z"/><path class="cls-1" d="M42.52,56.77H80.13A22.8,22.8,0,0,1,83,57c1,.12,1.34.64,1.08,1.52a15.56,15.56,0,0,1-3.72,6.9,9.73,9.73,0,0,1-7,2.58c-4.2,0-8.41-.08-12.61-.12-1.63,0-3.27,0-4.91,0-5.81,0-11.62-.06-17.44-.05-7.78,0-15.57.07-23.36.1-2.3,0-4.61,0-6.92,0a4.54,4.54,0,0,1-4-2.5c-1-1.71-1.94-3.42-2.89-5.14a7.33,7.33,0,0,1-.63-1.5C.32,57.74.66,57.13,1.65,57a27.68,27.68,0,0,1,3.64-.22Z"/></g></g></svg>