<svg xmlns="http://www.w3.org/2000/svg" viewBox="0 0 80.23 80.66"><defs><style>.cls-1{fill:#939393;stroke:#000;stroke-miterlimit:10;}</style></defs><g id="Layer_2" data-name="Layer 2"><g id="레이어_1" data-name="레이어 1"><path class="cls-1" d="M72.59,23.58a2.3,2.3,0,0,1-2.58-1,34.78,34.78,0,0,0-5.3-6.79,34.33,34.33,0,0,0-7.49-5.69,2.32,2.32,0,0,1-1.09-2.62L56.51,6a2.33,2.33,0,0,0-1.65-2.85L45.13.58a2.33,2.33,0,0,0-2.85,1.64l-.43,1.62a2.33,2.33,0,0,1-2.2,1.72,34.72,34.72,0,0,0-17.21,4.81A2.33,2.33,0,0,1,19.63,10l-1-1a2.31,2.31,0,0,0-3.28,0L8.2,16.12a2.31,2.31,0,0,0,0,3.28l1.18,1.18a2.32,2.32,0,0,1,.39,2.76A34.73,34.73,0,0,0,5.35,40.65a2.32,2.32,0,0,1-1.72,2.26l-1.41.37A2.33,2.33,0,0,0,.58,46.13l2.61,9.74A2.33,2.33,0,0,0,6,57.51l1.6-.43a2.31,2.31,0,0,1,2.59,1.05A34.84,34.84,0,0,0,23,70.61a2.32,2.32,0,0,1,1.09,2.62l-.37,1.39a2.32,2.32,0,0,0,1.64,2.85l9.74,2.61A2.33,2.33,0,0,0,38,78.43l.43-1.61a2.31,2.31,0,0,1,2.2-1.72A34.75,34.75,0,0,0,57.8,70.29a2.3,2.3,0,0,1,2.8.36l2.66,2.66L73.68,62.9l-2.82-2.83a2.29,2.29,0,0,1-.39-2.75A34.83,34.83,0,0,0,74.89,40a2.32,2.32,0,0,1,1.72-2.26l1.4-.37a2.34,2.34,0,0,0,1.65-2.85l-2.61-9.74a2.33,2.33,0,0,0-2.85-1.64ZM54.78,52.78a19.23,19.23,0,1,1,0-24.9A19.24,19.24,0,0,1,54.78,52.78Z"/></g></g></svg>