<svg xmlns="http://www.w3.org/2000/svg" viewBox="0 0 81.16 80.41"><defs><style>.cls-1,.cls-3{fill:#fff;}.cls-2,.cls-3,.cls-4{stroke:#000;stroke-miterlimit:10;}.cls-4{fill:#939393;}</style></defs><g id="Layer_2" data-name="Layer 2"><g id="레이어_1" data-name="레이어 1"><circle class="cls-1" cx="39.84" cy="42.35" r="25.1"/><path class="cls-2" d="M53,38.52c0-1.52,3.45-2.83,6.28-3.5-1-7.15-4.24-12.36-8-12.36-4.62,0-8.37,7.81-8.37,17.44s3.75,17.44,8.37,17.44c4.31,0,7.85-6.76,8.33-15.46C56.7,41.44,53,40.09,53,38.52Z"/><path class="cls-3" d="M59.28,35c-2.83.67-6.28,2-6.28,3.5s3.7,2.92,6.59,3.56c0-.65,0-1.31,0-2A35.94,35.94,0,0,0,59.28,35Z"/><path class="cls-4" d="M60.55,9.83a2.31,2.31,0,0,1-2.77.33,35.19,35.19,0,0,0-7.92-3.38,34.59,34.59,0,0,0-9.31-1.35,2.31,2.31,0,0,1-2.22-1.76L38,2.26A2.32,2.32,0,0,0,35.17.57L25.38,3a2.33,2.33,0,0,0-1.69,2.82l.4,1.62A2.31,2.31,0,0,1,23,10,34.78,34.78,0,0,0,10.27,22.55a2.31,2.31,0,0,1-2.63,1l-1.39-.4a2.32,2.32,0,0,0-2.87,1.59L.59,34.47a2.33,2.33,0,0,0,1.59,2.88l1.61.46A2.3,2.3,0,0,1,5.46,40,34.75,34.75,0,0,0,10,57.32a2.32,2.32,0,0,1-.41,2.81l-1,1a2.32,2.32,0,0,0-.06,3.29l7,7.26a2.33,2.33,0,0,0,3.29.06l1.2-1.15a2.31,2.31,0,0,1,2.77-.34,34.37,34.37,0,0,0,7.92,3.38A35,35,0,0,0,39.94,75a2.29,2.29,0,0,1,2.21,1.75l.35,1.41a2.33,2.33,0,0,0,2.82,1.69l9.78-2.43a2.33,2.33,0,0,0,1.7-2.82L56.4,73a2.32,2.32,0,0,1,1.09-2.57A34.62,34.62,0,0,0,70.22,57.86a2.32,2.32,0,0,1,2.63-1l3.62,1L80.54,43.7,76.7,42.6A2.31,2.31,0,0,1,75,40.38a34.66,34.66,0,0,0-4.51-17.29,2.31,2.31,0,0,1,.41-2.8l1-1A2.33,2.33,0,0,0,72,16L65,8.73a2.32,2.32,0,0,0-3.28-.06ZM59.1,44A19.23,19.23,0,1,1,47,22.21,19.24,19.24,0,0,1,59.1,44Z"/></g></g></svg>