<svg xmlns="http://www.w3.org/2000/svg" viewBox="0 0 95.82 60.49"><defs><style>.cls-1{fill:#fff;}.cls-1,.cls-2,.cls-3{stroke:#000;stroke-miterlimit:10;}.cls-2{fill:#5b5b5b;}.cls-3{fill:none;}</style></defs><g id="Layer_2" data-name="Layer 2"><g id="레이어_1" data-name="레이어 1"><rect class="cls-1" x="4.53" y="0.95" width="86.77" height="59.04" rx="5.55"/><rect class="cls-2" x="0.5" y="0.5" width="94.82" height="8.95"/><rect class="cls-2" x="0.5" y="51.04" width="94.82" height="8.95"/><rect x="7.87" y="0.53" width="8.82" height="8.82"/><rect x="25.63" y="0.53" width="8.82" height="8.82"/><rect x="43.39" y="0.53" width="8.82" height="8.82"/><rect x="61.14" y="0.53" width="8.82" height="8.82"/><rect x="78.9" y="0.53" width="8.82" height="8.82"/><polyline points="0.45 51.13 7.81 51.13 7.81 59.95 0.47 59.95"/><rect x="16.75" y="51.13" width="8.82" height="8.82"/><rect x="34.51" y="51.13" width="8.82" height="8.82"/><rect x="52.27" y="51.13" width="8.82" height="8.82"/><rect x="70.02" y="51.13" width="8.82" height="8.82"/><polyline points="95.38 59.95 87.95 59.95 87.95 51.13 95.32 51.13"/><line x1="95.32" y1="51.13" x2="95.39" y2="51.13"/><path class="cls-1" d="M47.91,39.07c16.23,0,29.38-6.8,29.38-15.2H18.53C18.53,32.27,31.68,39.07,47.91,39.07Z"/><line class="cls-3" x1="47.41" y1="39.07" x2="47.41" y2="23.87"/><line class="cls-3" x1="41.44" y1="38.7" x2="41.44" y2="23.82"/><line class="cls-3" x1="35.46" y1="37.69" x2="35.46" y2="23.82"/><line class="cls-3" x1="29.49" y1="35.56" x2="29.49" y2="23.82"/><line class="cls-3" x1="23.51" y1="32.46" x2="23.51" y2="23.82"/><line class="cls-3" x1="53.39" y1="38.7" x2="53.39" y2="23.82"/><line class="cls-3" x1="59.36" y1="37.69" x2="59.36" y2="23.82"/><line class="cls-3" x1="65.34" y1="35.94" x2="65.34" y2="23.82"/><line class="cls-3" x1="71.31" y1="33.17" x2="71.31" y2="23.82"/></g></g></svg>