<svg xmlns="http://www.w3.org/2000/svg" viewBox="0 0 95.82 60.49"><defs><style>.cls-1{fill:#9e9e9e;}.cls-1,.cls-2,.cls-3{stroke:#000;stroke-miterlimit:10;}.cls-2{fill:#5b5b5b;}.cls-3{fill:#fff;}</style></defs><g id="Layer_2" data-name="Layer 2"><g id="레이어_1" data-name="레이어 1"><rect class="cls-1" x="4.53" y="0.95" width="86.77" height="59.04" rx="5.55"/><rect class="cls-2" x="0.5" y="0.5" width="94.82" height="8.95"/><rect class="cls-2" x="0.5" y="51.04" width="94.82" height="8.95"/><rect x="7.87" y="0.53" width="8.82" height="8.82"/><rect x="25.63" y="0.53" width="8.82" height="8.82"/><rect x="43.39" y="0.53" width="8.82" height="8.82"/><rect x="61.14" y="0.53" width="8.82" height="8.82"/><rect x="78.9" y="0.53" width="8.82" height="8.82"/><polyline points="0.45 51.13 7.81 51.13 7.81 59.95 0.47 59.95"/><rect x="16.75" y="51.13" width="8.82" height="8.82"/><rect x="34.51" y="51.13" width="8.82" height="8.82"/><rect x="52.27" y="51.13" width="8.82" height="8.82"/><rect x="70.02" y="51.13" width="8.82" height="8.82"/><polyline points="95.38 59.95 87.95 59.95 87.95 51.13 95.32 51.13"/><line x1="95.32" y1="51.13" x2="95.39" y2="51.13"/><path class="cls-3" d="M64.6,29.21,40.5,15.3a1.73,1.73,0,0,0-2.59,1.5V44.62a1.73,1.73,0,0,0,2.59,1.5L64.6,32.2A1.73,1.73,0,0,0,64.6,29.21Z"/></g></g></svg>